<svg xmlns="http://www.w3.org/2000/svg" viewBox="0 0 1200 1200" role="img" aria-labelledby="title desc">
  <title id="title">VimoVpn Logo</title>
  <desc id="desc">Blue shield logo with V mark and VimoVpn text on dark gradient background.</desc>
  <defs>
    <linearGradient id="bgGrad" x1="0" y1="0" x2="0" y2="1">
      <stop offset="0%" stop-color="#080a0e" />
      <stop offset="64%" stop-color="#0a0f19" />
      <stop offset="100%" stop-color="#146fd5" />
    </linearGradient>
    <radialGradient id="glow" cx="50%" cy="84%" r="52%">
      <stop offset="0%" stop-color="#1890ff" stop-opacity="0.46" />
      <stop offset="100%" stop-color="#1890ff" stop-opacity="0" />
    </radialGradient>
  </defs>

  <rect width="1200" height="1200" fill="url(#bgGrad)" />
  <rect width="1200" height="1200" fill="url(#glow)" />

  <g transform="translate(0 12)">
    <path d="M600 254 810 356v178c0 196-109 328-210 402-101-74-210-206-210-402V356Z" fill="none" stroke="#1580ff" stroke-width="30" stroke-linejoin="round" />
    <path d="M600 298 768 380v150c0 154-82 261-168 327-86-66-168-173-168-327V380Z" fill="#0c1018" stroke="#0c1018" stroke-width="8" />
    <path d="M478 486h53l70 110 73-110h54L601 679z" fill="#ffffff" />
    <path d="M690 596 755 486h55l-65 110-47 83h-55l28-49z" fill="#ffffff" />
  </g>

  <text x="600" y="890" fill="#ffffff" font-size="172" font-weight="800" text-anchor="middle" font-family="Bahnschrift, Segoe UI, Arial, sans-serif">VimoVpn</text>
</svg>
